# xmcd
#
# Track frame offsets: 
#        150
#        11873
#        22282
#        27887
#        38797
#        50287
#        62096
#        73894
#        85033
#        96453
#        107888
#        118624
#        131133
#        142813
#        153318
#        162757
#        173142
#        181296
#        193634
#        203326
#        213760
#        221643
#        232157
#        244727
#        255543
#        264735
#        277375
#        290366
#        301076
#
# Disc length: 4173 seconds
#
# Revision: 6
# Processed by: cddbd v1.5.2PL0 Copyright (c) Steve Scherf et al.
# Submitted via: ExactAudioCopyFreeDBPlugin 1.0
#
DISCID=ad104b1d
DTITLE=Merle Haggard - Untamed Hawk - The Early Recordings Of Merle Ha
DTITLE=ggard - CD1
DYEAR=1965
DGENRE=Country
TTITLE0=Sing A Sad Song
TTITLE1=You Don't Even Try
TTITLE2=Life In Prison (False Start)
TTITLE3=Life In Prison
TTITLE4=You Don't Have Far To Go
TTITLE5=Sam Hill
TTITLE6=Sam Hill
TTITLE7=Please Mr. D.J. 
TTITLE8=I'd Trade All Of My Tomorrows
TTITLE9=(My Friends Are Gonna Be) Strangers
TTITLE10=Slowly But Surely (& Bonnie Owens
TTITLE11=Just Between The Two Of Us (& Bonnie Owens)
TTITLE12=So Much For Me So Much For You (& Bonnie Owens)
TTITLE13=Falling For You
TTITLE14=I Want To Live Again
TTITLE15=A House Without Love Is Not A Home
TTITLE16=Walking The Floor Over You
TTITLE17=The Worst Is Yet To Come
TTITLE18=Piedras Negras (Go Home)
TTITLE19=Singin' My Heart Out
TTITLE20=Skid Row
TTITLE21=Falling For You (Without String Overdub)
TTITLE22=I'd Trade All Of My Tomorrows (Without String Overdub)
TTITLE23=If I Had Left It Up To You
TTITLE24=I'm Gonna Break Every Heart I Can
TTITLE25=Stranger In My Arms (& Bonnie Owens)
TTITLE26=If I Could Be Him
TTITLE27=Shade Tree (Fix-It-Man)
TTITLE28=This Town's Not Big Enough
EXTD=
EXTT0=
EXTT1=
EXTT2=
EXTT3=
EXTT4=
EXTT5=
EXTT6=
EXTT7=
EXTT8=
EXTT9=
EXTT10=
EXTT11=
EXTT12=
EXTT13=
EXTT14=
EXTT15=
EXTT16=
EXTT17=
EXTT18=
EXTT19=
EXTT20=
EXTT21=
EXTT22=
EXTT23=
EXTT24=
EXTT25=
EXTT26=
EXTT27=
EXTT28=
PLAYORDER=
